<svg width="23" height="23" viewBox="0 0 23 23" fill="none" xmlns="http://www.w3.org/2000/svg">
<path d="M10.5621 1.5345C10.8843 0.663886 12.1157 0.663887 12.4379 1.5345L14.7166 7.69262C14.8178 7.96634 15.0337 8.18215 15.3074 8.28344L21.4655 10.5621C22.3361 10.8843 22.3361 12.1157 21.4655 12.4379L15.3074 14.7166C15.0337 14.8178 14.8178 15.0337 14.7166 15.3074L12.4379 21.4655C12.1157 22.3361 10.8843 22.3361 10.5621 21.4655L8.28344 15.3074C8.18215 15.0337 7.96634 14.8178 7.69262 14.7166L1.5345 12.4379C0.663886 12.1157 0.663887 10.8843 1.5345 10.5621L7.69262 8.28344C7.96634 8.18215 8.18215 7.96634 8.28344 7.69262L10.5621 1.5345Z" fill="#8FE5FF"/>
</svg>
