<svg width="110" height="71" viewBox="0 0 110 71" fill="none" xmlns="http://www.w3.org/2000/svg">
<path d="M31.3419 43.5682C27.6348 45.7197 23.1189 46.7955 17.7941 46.7955H11.3235V43.5682H8.08823C7.65012 43.5682 7.27099 43.1732 6.95083 42.3832C6.63067 41.5932 6.47059 40.6435 6.47059 39.5341C6.47059 38.7273 6.58854 37.9036 6.82445 37.0632C4.86979 36.996 3.24372 36.8195 1.94623 36.5337C0.648744 36.248 0 35.9034 0 35.5C0 35.0966 0.648744 34.752 1.94623 34.4663C3.24372 34.1805 4.86979 34.004 6.82445 33.9368C6.58854 33.0964 6.47059 32.2727 6.47059 31.4659C6.47059 30.3565 6.63067 29.4068 6.95083 28.6168C7.27099 27.8268 7.65012 27.4318 8.08823 27.4318H11.3235V24.2045H17.7941C23.1189 24.2045 27.6348 25.2803 31.3419 27.4318H87.6057C89.0211 27.6671 90.8157 27.9697 92.9894 28.3395C95.1631 28.7093 96.5196 28.9446 97.0588 29.0455C100.058 29.5497 102.586 30.2305 104.642 31.0877C106.697 31.945 108.104 32.7434 108.863 33.483C109.621 34.2225 110 34.8949 110 35.5C110 36.1051 109.621 36.7775 108.863 37.517C108.104 38.2566 106.697 39.055 104.642 39.9123C102.586 40.7695 100.058 41.4503 97.0588 41.9545C96.5196 42.0554 95.1631 42.2907 92.9894 42.6605C90.8157 43.0303 89.0211 43.3329 87.6057 43.5682H31.3419ZM87.909 30.8608C89.6952 32.071 90.5882 33.6174 90.5882 35.5C90.5882 37.3826 89.6952 38.929 87.909 40.1392L92.0037 41.652C94.2953 40.0384 95.4412 37.9877 95.4412 35.5C95.4412 33.0123 94.2953 30.9616 92.0037 29.348L87.909 30.8608ZM31.5947 44.375H82.9044C75.5913 45.6525 67.9075 46.9972 59.8529 48.4091C57.932 48.4091 56.0279 48.8125 54.1406 49.6193C52.2534 50.4261 50.8548 51.233 49.9449 52.0398L48.5294 53.25L33.9706 67.7727C33.0944 68.6468 31.9064 69.4032 30.4067 70.0419C28.907 70.6806 27.3989 71 25.8824 71H21.0294L16.3281 47.6023H17.7941C23.0852 47.6023 27.6854 46.5265 31.5947 44.375ZM17.7941 23.3977H16.3281L21.0294 0H25.8824C27.4326 0 28.9491 0.319366 30.432 0.958097C31.9148 1.59683 33.0944 2.35322 33.9706 3.22727L48.5294 17.75C48.6642 17.8845 48.8496 18.061 49.0855 18.2795C49.3214 18.498 49.8353 18.8846 50.6273 19.4393C51.4193 19.994 52.2365 20.4814 53.079 20.9016C53.9216 21.3219 54.9579 21.7085 56.188 22.0614C57.418 22.4144 58.6397 22.5909 59.8529 22.5909L82.9044 26.625H31.5947C27.6854 24.4735 23.0852 23.3977 17.7941 23.3977Z" fill="#8FE5FF"/>
</svg>
